<mxfile host="app.diagrams.net" modified="2024-03-15T21:46:24.967Z" agent="Mozilla/5.0 (Windows NT 10.0; Win64; x64) AppleWebKit/537.36 (KHTML, like Gecko) Chrome/122.0.0.0 Safari/537.36 Edg/122.0.0.0" etag="QmotrETLq7YrD5Z0KiJZ" version="24.0.7" type="device">
  <diagram name="Page-1" id="2dqctoDm5vksL29-trw3">
    <mxGraphModel dx="1254" dy="687" grid="1" gridSize="10" guides="1" tooltips="1" connect="1" arrows="1" fold="1" page="1" pageScale="1" pageWidth="850" pageHeight="1100" math="0" shadow="0">
      <root>
        <mxCell id="0" />
        <mxCell id="1" parent="0" />
        <mxCell id="a7BsURYHyhhVPzdl92og-1" value="&lt;b&gt;&lt;font style=&quot;font-size: 25px;&quot;&gt;Levitation Power Unit&lt;/font&gt;&lt;/b&gt;" style="text;strokeColor=none;fillColor=none;align=left;verticalAlign=middle;spacingLeft=4;spacingRight=4;overflow=hidden;points=[[0,0.5],[1,0.5]];portConstraint=eastwest;rotatable=0;whiteSpace=wrap;html=1;" vertex="1" parent="1">
          <mxGeometry x="210" y="130" width="340" height="40" as="geometry" />
        </mxCell>
        <mxCell id="a7BsURYHyhhVPzdl92og-4" value="" style="edgeStyle=orthogonalEdgeStyle;rounded=0;orthogonalLoop=1;jettySize=auto;html=1;" edge="1" parent="1" source="a7BsURYHyhhVPzdl92og-2" target="a7BsURYHyhhVPzdl92og-3">
          <mxGeometry relative="1" as="geometry" />
        </mxCell>
        <mxCell id="a7BsURYHyhhVPzdl92og-17" value="" style="edgeStyle=orthogonalEdgeStyle;rounded=0;orthogonalLoop=1;jettySize=auto;html=1;" edge="1" parent="1" source="a7BsURYHyhhVPzdl92og-2" target="a7BsURYHyhhVPzdl92og-11">
          <mxGeometry relative="1" as="geometry" />
        </mxCell>
        <mxCell id="a7BsURYHyhhVPzdl92og-2" value="MCU" style="rounded=0;whiteSpace=wrap;html=1;" vertex="1" parent="1">
          <mxGeometry x="360" y="310" width="120" height="40" as="geometry" />
        </mxCell>
        <mxCell id="a7BsURYHyhhVPzdl92og-5" style="edgeStyle=orthogonalEdgeStyle;rounded=0;orthogonalLoop=1;jettySize=auto;html=1;entryX=0.5;entryY=0;entryDx=0;entryDy=0;" edge="1" parent="1" source="a7BsURYHyhhVPzdl92og-3" target="a7BsURYHyhhVPzdl92og-2">
          <mxGeometry relative="1" as="geometry" />
        </mxCell>
        <mxCell id="a7BsURYHyhhVPzdl92og-3" value="Control VCU" style="rounded=0;whiteSpace=wrap;html=1;" vertex="1" parent="1">
          <mxGeometry x="360" y="190" width="120" height="40" as="geometry" />
        </mxCell>
        <mxCell id="a7BsURYHyhhVPzdl92og-9" value="" style="edgeStyle=orthogonalEdgeStyle;rounded=0;orthogonalLoop=1;jettySize=auto;html=1;" edge="1" parent="1" source="a7BsURYHyhhVPzdl92og-6" target="a7BsURYHyhhVPzdl92og-8">
          <mxGeometry relative="1" as="geometry" />
        </mxCell>
        <mxCell id="a7BsURYHyhhVPzdl92og-6" value="Auxiliary Power" style="rounded=0;whiteSpace=wrap;html=1;" vertex="1" parent="1">
          <mxGeometry x="80" y="300" width="120" height="60" as="geometry" />
        </mxCell>
        <mxCell id="a7BsURYHyhhVPzdl92og-10" value="" style="edgeStyle=orthogonalEdgeStyle;rounded=0;orthogonalLoop=1;jettySize=auto;html=1;" edge="1" parent="1" source="a7BsURYHyhhVPzdl92og-8" target="a7BsURYHyhhVPzdl92og-2">
          <mxGeometry relative="1" as="geometry" />
        </mxCell>
        <mxCell id="a7BsURYHyhhVPzdl92og-8" value="Isolation" style="ellipse;whiteSpace=wrap;html=1;" vertex="1" parent="1">
          <mxGeometry x="240" y="300" width="80" height="60" as="geometry" />
        </mxCell>
        <mxCell id="a7BsURYHyhhVPzdl92og-20" value="" style="edgeStyle=orthogonalEdgeStyle;rounded=0;orthogonalLoop=1;jettySize=auto;html=1;" edge="1" parent="1" source="a7BsURYHyhhVPzdl92og-11" target="a7BsURYHyhhVPzdl92og-18">
          <mxGeometry relative="1" as="geometry" />
        </mxCell>
        <mxCell id="a7BsURYHyhhVPzdl92og-11" value="Isolated Gate Driver" style="rounded=0;whiteSpace=wrap;html=1;" vertex="1" parent="1">
          <mxGeometry x="360" y="400" width="120" height="60" as="geometry" />
        </mxCell>
        <mxCell id="a7BsURYHyhhVPzdl92og-14" value="" style="edgeStyle=orthogonalEdgeStyle;rounded=0;orthogonalLoop=1;jettySize=auto;html=1;exitX=0.5;exitY=1;exitDx=0;exitDy=0;" edge="1" target="a7BsURYHyhhVPzdl92og-15" parent="1" source="a7BsURYHyhhVPzdl92og-6">
          <mxGeometry relative="1" as="geometry">
            <mxPoint x="200" y="430" as="sourcePoint" />
          </mxGeometry>
        </mxCell>
        <mxCell id="a7BsURYHyhhVPzdl92og-15" value="Isolation" style="ellipse;whiteSpace=wrap;html=1;" vertex="1" parent="1">
          <mxGeometry x="240" y="400" width="80" height="60" as="geometry" />
        </mxCell>
        <mxCell id="a7BsURYHyhhVPzdl92og-16" value="" style="edgeStyle=orthogonalEdgeStyle;rounded=0;orthogonalLoop=1;jettySize=auto;html=1;" edge="1" source="a7BsURYHyhhVPzdl92og-15" parent="1">
          <mxGeometry relative="1" as="geometry">
            <mxPoint x="360" y="430" as="targetPoint" />
          </mxGeometry>
        </mxCell>
        <mxCell id="a7BsURYHyhhVPzdl92og-33" style="edgeStyle=orthogonalEdgeStyle;rounded=0;orthogonalLoop=1;jettySize=auto;html=1;entryX=1;entryY=0.5;entryDx=0;entryDy=0;" edge="1" parent="1" source="a7BsURYHyhhVPzdl92og-18" target="a7BsURYHyhhVPzdl92og-32">
          <mxGeometry relative="1" as="geometry" />
        </mxCell>
        <mxCell id="a7BsURYHyhhVPzdl92og-18" value="IGBT Half Bridge" style="rounded=0;whiteSpace=wrap;html=1;" vertex="1" parent="1">
          <mxGeometry x="360" y="530" width="120" height="60" as="geometry" />
        </mxCell>
        <mxCell id="a7BsURYHyhhVPzdl92og-23" value="" style="edgeStyle=orthogonalEdgeStyle;rounded=0;orthogonalLoop=1;jettySize=auto;html=1;" edge="1" parent="1" source="a7BsURYHyhhVPzdl92og-21" target="a7BsURYHyhhVPzdl92og-22">
          <mxGeometry relative="1" as="geometry" />
        </mxCell>
        <mxCell id="a7BsURYHyhhVPzdl92og-30" style="edgeStyle=orthogonalEdgeStyle;rounded=0;orthogonalLoop=1;jettySize=auto;html=1;exitX=0.75;exitY=0;exitDx=0;exitDy=0;entryX=0.5;entryY=0;entryDx=0;entryDy=0;" edge="1" parent="1" source="a7BsURYHyhhVPzdl92og-21" target="a7BsURYHyhhVPzdl92og-25">
          <mxGeometry relative="1" as="geometry" />
        </mxCell>
        <mxCell id="a7BsURYHyhhVPzdl92og-58" style="edgeStyle=orthogonalEdgeStyle;rounded=0;orthogonalLoop=1;jettySize=auto;html=1;exitX=0.5;exitY=0;exitDx=0;exitDy=0;entryX=0.5;entryY=1;entryDx=0;entryDy=0;" edge="1" parent="1" source="a7BsURYHyhhVPzdl92og-21" target="a7BsURYHyhhVPzdl92og-57">
          <mxGeometry relative="1" as="geometry" />
        </mxCell>
        <mxCell id="a7BsURYHyhhVPzdl92og-21" value="DC Link" style="rounded=0;whiteSpace=wrap;html=1;" vertex="1" parent="1">
          <mxGeometry x="30" y="530" width="120" height="60" as="geometry" />
        </mxCell>
        <mxCell id="a7BsURYHyhhVPzdl92og-27" value="" style="edgeStyle=orthogonalEdgeStyle;rounded=0;orthogonalLoop=1;jettySize=auto;html=1;" edge="1" parent="1" source="a7BsURYHyhhVPzdl92og-22" target="a7BsURYHyhhVPzdl92og-25">
          <mxGeometry relative="1" as="geometry" />
        </mxCell>
        <mxCell id="a7BsURYHyhhVPzdl92og-43" style="edgeStyle=orthogonalEdgeStyle;rounded=0;orthogonalLoop=1;jettySize=auto;html=1;exitX=0.5;exitY=0;exitDx=0;exitDy=0;entryX=0;entryY=0.5;entryDx=0;entryDy=0;" edge="1" parent="1" source="a7BsURYHyhhVPzdl92og-22" target="a7BsURYHyhhVPzdl92og-41">
          <mxGeometry relative="1" as="geometry">
            <Array as="points">
              <mxPoint x="215" y="500" />
            </Array>
          </mxGeometry>
        </mxCell>
        <mxCell id="a7BsURYHyhhVPzdl92og-22" value="Current Shunt" style="ellipse;whiteSpace=wrap;html=1;" vertex="1" parent="1">
          <mxGeometry x="180" y="540" width="70" height="40" as="geometry" />
        </mxCell>
        <mxCell id="a7BsURYHyhhVPzdl92og-28" value="" style="edgeStyle=orthogonalEdgeStyle;rounded=0;orthogonalLoop=1;jettySize=auto;html=1;" edge="1" parent="1" source="a7BsURYHyhhVPzdl92og-25" target="a7BsURYHyhhVPzdl92og-18">
          <mxGeometry relative="1" as="geometry" />
        </mxCell>
        <mxCell id="a7BsURYHyhhVPzdl92og-25" value="DC Link Capacitor" style="ellipse;whiteSpace=wrap;html=1;aspect=fixed;" vertex="1" parent="1">
          <mxGeometry x="270" y="530" width="60" height="60" as="geometry" />
        </mxCell>
        <mxCell id="a7BsURYHyhhVPzdl92og-37" style="edgeStyle=orthogonalEdgeStyle;rounded=0;orthogonalLoop=1;jettySize=auto;html=1;entryX=0;entryY=0.5;entryDx=0;entryDy=0;exitX=0.333;exitY=0.833;exitDx=0;exitDy=0;exitPerimeter=0;" edge="1" parent="1" source="a7BsURYHyhhVPzdl92og-29" target="a7BsURYHyhhVPzdl92og-36">
          <mxGeometry relative="1" as="geometry">
            <Array as="points">
              <mxPoint x="160" y="560" />
              <mxPoint x="160" y="630" />
            </Array>
          </mxGeometry>
        </mxCell>
        <mxCell id="a7BsURYHyhhVPzdl92og-29" value="-ve" style="text;html=1;align=center;verticalAlign=middle;whiteSpace=wrap;rounded=0;" vertex="1" parent="1">
          <mxGeometry x="130" y="535" width="60" height="30" as="geometry" />
        </mxCell>
        <mxCell id="a7BsURYHyhhVPzdl92og-31" value="+ve" style="text;html=1;align=center;verticalAlign=middle;whiteSpace=wrap;rounded=0;" vertex="1" parent="1">
          <mxGeometry x="100" y="510" width="60" height="30" as="geometry" />
        </mxCell>
        <mxCell id="a7BsURYHyhhVPzdl92og-32" value="EMS Unit" style="ellipse;whiteSpace=wrap;html=1;aspect=fixed;" vertex="1" parent="1">
          <mxGeometry x="280" y="680" width="80" height="80" as="geometry" />
        </mxCell>
        <mxCell id="a7BsURYHyhhVPzdl92og-34" value="+ve" style="text;html=1;align=center;verticalAlign=middle;whiteSpace=wrap;rounded=0;" vertex="1" parent="1">
          <mxGeometry x="340" y="690" width="60" height="30" as="geometry" />
        </mxCell>
        <mxCell id="a7BsURYHyhhVPzdl92og-44" style="edgeStyle=orthogonalEdgeStyle;rounded=0;orthogonalLoop=1;jettySize=auto;html=1;exitX=0.5;exitY=0;exitDx=0;exitDy=0;entryX=0;entryY=0.5;entryDx=0;entryDy=0;" edge="1" parent="1" source="a7BsURYHyhhVPzdl92og-36" target="a7BsURYHyhhVPzdl92og-42">
          <mxGeometry relative="1" as="geometry">
            <Array as="points">
              <mxPoint x="215" y="600" />
              <mxPoint x="520" y="600" />
              <mxPoint x="520" y="595" />
            </Array>
          </mxGeometry>
        </mxCell>
        <mxCell id="a7BsURYHyhhVPzdl92og-36" value="Current Shunt" style="ellipse;whiteSpace=wrap;html=1;" vertex="1" parent="1">
          <mxGeometry x="180" y="610" width="70" height="40" as="geometry" />
        </mxCell>
        <mxCell id="a7BsURYHyhhVPzdl92og-38" style="edgeStyle=orthogonalEdgeStyle;rounded=0;orthogonalLoop=1;jettySize=auto;html=1;exitX=1;exitY=0.5;exitDx=0;exitDy=0;entryX=0;entryY=0.5;entryDx=0;entryDy=0;" edge="1" parent="1" source="a7BsURYHyhhVPzdl92og-36" target="a7BsURYHyhhVPzdl92og-32">
          <mxGeometry relative="1" as="geometry">
            <Array as="points">
              <mxPoint x="260" y="630" />
              <mxPoint x="260" y="720" />
            </Array>
          </mxGeometry>
        </mxCell>
        <mxCell id="a7BsURYHyhhVPzdl92og-39" value="-ve" style="text;html=1;align=center;verticalAlign=middle;whiteSpace=wrap;rounded=0;" vertex="1" parent="1">
          <mxGeometry x="240" y="690" width="60" height="30" as="geometry" />
        </mxCell>
        <mxCell id="a7BsURYHyhhVPzdl92og-54" style="edgeStyle=orthogonalEdgeStyle;rounded=0;orthogonalLoop=1;jettySize=auto;html=1;exitX=1;exitY=0.5;exitDx=0;exitDy=0;" edge="1" parent="1" source="a7BsURYHyhhVPzdl92og-41">
          <mxGeometry relative="1" as="geometry">
            <mxPoint x="690" y="500.3333333333335" as="targetPoint" />
          </mxGeometry>
        </mxCell>
        <mxCell id="a7BsURYHyhhVPzdl92og-41" value="LP Filter and Differential Amplifier" style="rounded=0;whiteSpace=wrap;html=1;" vertex="1" parent="1">
          <mxGeometry x="530" y="470" width="120" height="60" as="geometry" />
        </mxCell>
        <mxCell id="a7BsURYHyhhVPzdl92og-48" value="" style="edgeStyle=orthogonalEdgeStyle;rounded=0;orthogonalLoop=1;jettySize=auto;html=1;" edge="1" parent="1" source="a7BsURYHyhhVPzdl92og-42" target="a7BsURYHyhhVPzdl92og-47">
          <mxGeometry relative="1" as="geometry" />
        </mxCell>
        <mxCell id="a7BsURYHyhhVPzdl92og-53" style="edgeStyle=orthogonalEdgeStyle;rounded=0;orthogonalLoop=1;jettySize=auto;html=1;exitX=1;exitY=0.5;exitDx=0;exitDy=0;" edge="1" parent="1" source="a7BsURYHyhhVPzdl92og-42">
          <mxGeometry relative="1" as="geometry">
            <mxPoint x="690" y="595.3333333333335" as="targetPoint" />
          </mxGeometry>
        </mxCell>
        <mxCell id="a7BsURYHyhhVPzdl92og-42" value="LP Filter and Differential Amplifier" style="rounded=0;whiteSpace=wrap;html=1;" vertex="1" parent="1">
          <mxGeometry x="530" y="565" width="120" height="60" as="geometry" />
        </mxCell>
        <mxCell id="a7BsURYHyhhVPzdl92og-52" style="edgeStyle=orthogonalEdgeStyle;rounded=0;orthogonalLoop=1;jettySize=auto;html=1;exitX=1;exitY=0.5;exitDx=0;exitDy=0;" edge="1" parent="1" source="a7BsURYHyhhVPzdl92og-47">
          <mxGeometry relative="1" as="geometry">
            <mxPoint x="690" y="450" as="targetPoint" />
          </mxGeometry>
        </mxCell>
        <mxCell id="a7BsURYHyhhVPzdl92og-47" value="Comparator" style="rounded=0;whiteSpace=wrap;html=1;" vertex="1" parent="1">
          <mxGeometry x="530" y="650" width="120" height="60" as="geometry" />
        </mxCell>
        <mxCell id="a7BsURYHyhhVPzdl92og-50" value="" style="edgeStyle=orthogonalEdgeStyle;rounded=0;orthogonalLoop=1;jettySize=auto;html=1;" edge="1" parent="1" source="a7BsURYHyhhVPzdl92og-49" target="a7BsURYHyhhVPzdl92og-47">
          <mxGeometry relative="1" as="geometry" />
        </mxCell>
        <mxCell id="a7BsURYHyhhVPzdl92og-49" value="Isolation" style="ellipse;whiteSpace=wrap;html=1;" vertex="1" parent="1">
          <mxGeometry x="450" y="660" width="60" height="40" as="geometry" />
        </mxCell>
        <mxCell id="a7BsURYHyhhVPzdl92og-51" style="edgeStyle=orthogonalEdgeStyle;rounded=0;orthogonalLoop=1;jettySize=auto;html=1;exitX=1;exitY=0.5;exitDx=0;exitDy=0;entryX=0.597;entryY=-0.061;entryDx=0;entryDy=0;entryPerimeter=0;" edge="1" parent="1" source="a7BsURYHyhhVPzdl92og-2" target="a7BsURYHyhhVPzdl92og-49">
          <mxGeometry relative="1" as="geometry">
            <Array as="points">
              <mxPoint x="500" y="330" />
              <mxPoint x="500" y="530" />
              <mxPoint x="486" y="530" />
            </Array>
          </mxGeometry>
        </mxCell>
        <mxCell id="a7BsURYHyhhVPzdl92og-56" style="edgeStyle=orthogonalEdgeStyle;rounded=0;orthogonalLoop=1;jettySize=auto;html=1;entryX=1;entryY=0.25;entryDx=0;entryDy=0;" edge="1" parent="1" source="a7BsURYHyhhVPzdl92og-55" target="a7BsURYHyhhVPzdl92og-2">
          <mxGeometry relative="1" as="geometry" />
        </mxCell>
        <mxCell id="a7BsURYHyhhVPzdl92og-55" value="Isolation" style="ellipse;whiteSpace=wrap;html=1;" vertex="1" parent="1">
          <mxGeometry x="660" y="410" width="60" height="40" as="geometry" />
        </mxCell>
        <mxCell id="a7BsURYHyhhVPzdl92og-60" style="edgeStyle=orthogonalEdgeStyle;rounded=0;orthogonalLoop=1;jettySize=auto;html=1;entryX=0;entryY=0.5;entryDx=0;entryDy=0;" edge="1" parent="1" target="a7BsURYHyhhVPzdl92og-59">
          <mxGeometry relative="1" as="geometry">
            <mxPoint x="70" y="420" as="sourcePoint" />
            <mxPoint x="70" y="250" as="targetPoint" />
            <Array as="points">
              <mxPoint x="91" y="420" />
              <mxPoint x="91" y="380" />
              <mxPoint x="50" y="380" />
              <mxPoint x="50" y="250" />
            </Array>
          </mxGeometry>
        </mxCell>
        <mxCell id="a7BsURYHyhhVPzdl92og-57" value="Voltage Divider, LP Filter and Differential Amplifier" style="rounded=0;whiteSpace=wrap;html=1;" vertex="1" parent="1">
          <mxGeometry x="30" y="420" width="120" height="60" as="geometry" />
        </mxCell>
        <mxCell id="a7BsURYHyhhVPzdl92og-59" value="Isolation" style="ellipse;whiteSpace=wrap;html=1;" vertex="1" parent="1">
          <mxGeometry x="90" y="230" width="60" height="40" as="geometry" />
        </mxCell>
        <mxCell id="a7BsURYHyhhVPzdl92og-61" style="edgeStyle=orthogonalEdgeStyle;rounded=0;orthogonalLoop=1;jettySize=auto;html=1;exitX=1;exitY=0.5;exitDx=0;exitDy=0;entryX=0.162;entryY=-0.095;entryDx=0;entryDy=0;entryPerimeter=0;" edge="1" parent="1" source="a7BsURYHyhhVPzdl92og-59" target="a7BsURYHyhhVPzdl92og-2">
          <mxGeometry relative="1" as="geometry">
            <Array as="points">
              <mxPoint x="150" y="260" />
              <mxPoint x="379" y="260" />
            </Array>
          </mxGeometry>
        </mxCell>
      </root>
    </mxGraphModel>
  </diagram>
</mxfile>
